# This file uses centimeters as units for non-parametric coordinates.

mtllib sol_avec_mur_2.mtl
g default
v -20.080237 -0.000000 7.895434
v -13.741845 -0.000000 9.289583
v -7.591471 -0.000000 10.714857
v 14.026556 -0.000000 8.152760
v -18.698996 -0.000000 1.894881
v -4.258207 -0.000000 0.929675
v 3.943823 -0.000000 0.929675
v 16.472192 -0.000000 0.522069
v -17.617296 0.000000 -3.123823
v -4.037615 0.000000 -3.063900
v 3.937947 0.000000 -3.070398
v 17.520320 0.000000 -3.032563
v -16.372282 0.000000 -8.518125
v -4.037615 0.000000 -8.374158
v -14.974847 0.000000 -14.561002
v -4.023112 0.000000 -14.575236
v -19.799239 -0.000000 7.957241
v -18.261094 -0.000000 1.852091
v -17.177112 0.000000 -3.121166
v -15.825454 0.000000 -8.511743
v -14.489326 0.000000 -14.561632
v 17.421105 0.000000 -2.696080
v 3.938503 0.000000 -2.732210
v -4.058496 0.000000 -2.726327
v -17.275890 0.000000 -2.650396
v -17.719691 0.000000 -2.648751
v 13.608597 -0.000000 8.191954
v 16.024229 -0.000000 0.537959
v 17.037090 0.000000 -2.695912
v 16.990808 0.000000 -3.034038
v 14.188652 -0.000000 7.646994
v 13.773951 -0.000000 7.741310
v -7.332651 -0.000000 10.268589
v -13.679697 -0.000000 8.917553
v -19.643420 -0.000000 7.552589
v -19.988687 -0.000000 7.497715
v -20.080237 3.000000 7.895434
v -19.799239 3.000000 7.957241
v -19.643420 3.000000 7.552589
v -19.988687 3.000000 7.497715
v -13.741845 3.000000 9.289583
v -7.591471 3.000000 10.714857
v -7.332651 3.000000 10.268589
v -13.679697 3.000000 8.917553
v 13.608597 3.000000 8.191954
v 13.773951 3.000000 7.741310
v -18.698996 3.000000 1.894881
v -18.261094 3.000000 1.852091
v -17.275890 3.000000 -2.650396
v -17.719691 3.000000 -2.648751
v 17.037090 3.000000 -2.695912
v 3.938503 3.000000 -2.732210
v 16.990808 3.000000 -3.034038
v 3.937947 3.000000 -3.070398
v -4.058496 3.000000 -2.726327
v -4.037615 3.000000 -3.063900
v -17.177112 3.000000 -3.121166
v -17.617296 3.000000 -3.123823
v 14.026556 3.000000 8.152760
v 14.188652 3.000000 7.646994
v 16.024229 3.000000 0.537959
v 16.472192 3.000000 0.522069
v 17.421105 3.000000 -2.696080
v 17.520320 3.000000 -3.032563
vt 0.200000 0.200000
vt 0.400000 0.200000
vt 0.600000 0.200000
vt 0.800000 0.200000
vt 0.200000 0.400000
vt 0.400000 0.400000
vt 0.600000 0.400000
vt 0.800000 0.400000
vt 0.200000 0.600000
vt 0.400000 0.600000
vt 0.600000 0.600000
vt 0.800000 0.600000
vt 0.200000 0.800000
vt 0.400000 0.800000
vt 0.200000 1.000000
vt 0.400000 1.000000
vt 0.208867 0.200000
vt 0.208867 0.400000
vt 0.208867 0.600000
vt 0.208867 0.800000
vt 0.208867 1.000000
vt 0.800000 0.581068
vt 0.600000 0.581068
vt 0.400000 0.581068
vt 0.208867 0.581068
vt 0.200000 0.581068
vt 0.792203 0.200000
vt 0.792203 0.400000
vt 0.792203 0.581068
vt 0.792203 0.600000
vt 0.800000 0.213256
vt 0.792203 0.213256
vt 0.600000 0.213256
vt 0.400000 0.213256
vt 0.208867 0.213256
vt 0.200000 0.213256
vt 0.200000 0.200000
vt 0.208867 0.200000
vt 0.200000 0.213256
vt 0.400000 0.200000
vt 0.600000 0.200000
vt 0.600000 0.213256
vt 0.400000 0.213256
vt 0.792203 0.200000
vt 0.792203 0.213256
vt 0.208867 0.400000
vt 0.208867 0.581068
vt 0.200000 0.581068
vt 0.200000 0.400000
vt 0.208867 0.213256
vt 0.600000 0.581068
vt 0.792203 0.581068
vt 0.792203 0.600000
vt 0.600000 0.600000
vt 0.400000 0.581068
vt 0.400000 0.600000
vt 0.208867 0.600000
vt 0.200000 0.600000
vt 0.800000 0.200000
vt 0.800000 0.213256
vt 0.792203 0.400000
vt 0.800000 0.400000
vt 0.800000 0.581068
vt 0.800000 0.600000
vn 0.000000 1.000000 0.000001
vn 0.000000 1.000000 0.000000
vn 0.000000 1.000000 0.000000
vn 0.000000 1.000000 -0.000000
vn 0.000000 1.000000 0.000000
vn 0.000000 1.000000 0.000001
vn 0.000000 1.000000 0.000001
vn 0.000000 1.000000 0.000000
vn 0.000000 1.000000 0.000001
vn 0.000000 1.000000 0.000001
vn 0.000000 1.000000 -0.000000
vn 0.000000 1.000000 -0.000000
vn 0.000000 1.000000 -0.000001
vn 0.000000 1.000000 -0.000000
vn -0.000000 1.000000 0.000000
vn 0.000000 1.000000 0.000000
vn 0.000000 1.000000 0.000000
vn 0.000000 1.000000 0.000000
vn 0.000000 1.000000 0.000000
vn 0.000000 1.000000 0.000000
vn -0.000000 1.000000 0.000000
vn -0.000000 1.000000 0.000000
vn -0.000000 1.000000 0.000000
vn -0.000000 1.000000 0.000000
vn -0.000000 1.000000 0.000000
vn -0.000000 1.000000 0.000000
vn 0.000000 1.000000 0.000000
vn 0.000000 1.000000 0.000000
vn -0.000000 1.000000 0.000000
vn -0.000000 1.000000 0.000000
vn -0.000000 1.000000 0.000000
vn 0.000000 1.000000 0.000000
vn 0.000000 1.000000 0.000000
vn 0.000000 1.000000 0.000000
vn 0.000000 1.000000 0.000000
vn 0.000000 1.000000 -0.000000
vn 0.000000 1.000000 -0.000000
vn 0.000000 1.000000 -0.000001
vn 0.000000 1.000000 -0.000000
vn 0.000000 1.000000 -0.000000
vn 0.000000 1.000000 -0.000000
vn 0.000000 1.000000 0.000000
vn 0.000000 1.000000 0.000000
vn 0.000000 1.000000 0.000000
vn 0.000000 1.000000 0.000000
vn -0.000000 1.000000 0.000000
vn 0.000000 1.000000 0.000000
vn -0.000000 1.000000 0.000000
vn -0.000000 1.000000 0.000000
vn -0.214820 0.000000 0.976654
vn -0.214818 0.000000 0.976654
vn -0.214818 0.000000 0.976654
vn -0.214820 0.000000 0.976654
vn -0.974516 0.000000 -0.224320
vn -0.974515 0.000000 -0.224322
vn -0.974515 0.000000 -0.224322
vn -0.974516 0.000000 -0.224320
vn -0.220339 0.000000 0.975423
vn 0.040100 0.000000 0.999196
vn 0.040100 0.000000 0.999196
vn -0.220339 0.000000 0.975423
vn -0.042805 0.000000 -0.999083
vn 0.215439 0.000000 -0.976517
vn 0.215439 0.000000 -0.976517
vn -0.042805 0.000000 -0.999083
vn 0.117693 0.000000 0.993050
vn 0.117693 0.000000 0.993050
vn -0.118890 0.000000 -0.992907
vn -0.118890 0.000000 -0.992907
vn 0.974119 0.000000 0.226037
vn 0.976887 0.000000 0.213756
vn 0.976887 0.000000 0.213756
vn 0.974119 0.000000 0.226037
vn -0.977552 0.000000 -0.210695
vn -0.975896 0.000000 -0.218234
vn -0.975896 0.000000 -0.218234
vn -0.977552 0.000000 -0.210695
vn 0.223109 0.000000 -0.974794
vn 0.223109 0.000000 -0.974794
vn -0.001442 0.000000 0.999999
vn -0.002771 0.000000 0.999996
vn -0.002771 0.000000 0.999996
vn -0.001442 0.000000 0.999999
vn 0.002786 0.000000 -0.999996
vn 0.001420 0.000000 -0.999999
vn 0.001420 0.000000 -0.999999
vn 0.002786 0.000000 -0.999996
vn 0.003856 0.000000 0.999993
vn 0.003856 0.000000 0.999993
vn 0.002404 0.000000 -0.999997
vn 0.002404 0.000000 -0.999997
vn 0.005745 0.000000 0.999983
vn 0.005745 0.000000 0.999983
vn 0.004413 0.000000 -0.999990
vn 0.004413 0.000000 -0.999990
vn 0.006035 0.000000 -0.999982
vn 0.006035 0.000000 -0.999982
vn -0.977552 0.000000 -0.210696
vn -0.977552 0.000000 -0.210696
vn 0.093366 0.000000 0.995632
vn 0.093366 0.000000 0.995632
vn 0.952287 0.000000 0.305205
vn 0.952286 0.000000 0.305208
vn 0.952286 0.000000 0.305208
vn 0.952287 0.000000 0.305205
vn -0.954288 0.000000 -0.298887
vn -0.954441 0.000000 -0.298401
vn -0.954441 0.000000 -0.298401
vn -0.954288 0.000000 -0.298887
vn 0.954474 0.000000 0.298295
vn 0.959172 0.000000 0.282824
vn 0.959172 0.000000 0.282824
vn 0.954474 0.000000 0.298295
vn 0.959173 0.000000 0.282821
vn 0.959173 0.000000 0.282821
vn 0.002785 0.000000 -0.999996
vn 0.002785 0.000000 -0.999996
vn -0.954509 0.000000 -0.298182
vn -0.954509 0.000000 -0.298182
vn 0.971835 0.000000 0.235662
vn 0.971835 0.000000 0.235662
s 1
g pPlane1
usemtl initialShadingGroup
f 37/37/1 38/38/2 39/50/3 40/39/4
f 41/40/5 42/41/6 43/42/7 44/43/8
f 42/41/6 45/44/9 46/45/10 43/42/7
f 47/49/11 48/46/12 49/47/13 50/48/14
s 3
f 6/6/15 7/7/16 23/23/17 24/24/18
f 7/7/16 28/28/19 29/29/20 23/23/17
s 4
f 9/9/21 19/19/22 20/20/23 13/13/24
f 13/13/24 20/20/23 21/21/25 15/15/26
s 1
f 38/38/2 41/40/5 44/43/8 39/50/3
s 3
f 25/25/27 18/18/28 6/6/15 24/24/18
s 4
f 20/20/23 19/19/22 10/10/29 14/14/30
f 21/21/25 20/20/23 14/14/30 16/16/31
s 1
f 52/51/32 51/52/33 53/53/34 54/54/35
f 55/55/36 52/51/32 54/54/35 56/56/37
f 57/57/38 49/47/13 55/55/36 56/56/37
f 50/48/14 49/47/13 57/57/38 58/58/39
f 45/44/9 59/59/40 60/60/41 46/45/10
f 51/52/33 61/61/42 62/62/43 63/63/44
f 53/53/34 51/52/33 63/63/44 64/64/45
f 46/45/10 60/60/41 62/62/43 61/61/42
s 3
f 33/33/46 32/32/47 28/28/19 7/7/16
f 34/34/48 33/33/46 7/7/16 6/6/15
f 35/35/49 34/34/48 6/6/15 18/18/28
s 1
f 40/39/4 39/50/3 48/46/12 47/49/11
s 6
f 1/1/50 17/17/51 38/38/52 37/37/53
s 7
f 36/36/54 1/1/55 37/37/56 40/39/57
s 6
f 2/2/58 3/3/59 42/41/60 41/40/61
s 9
f 33/33/62 34/34/63 44/43/64 43/42/65
s 6
f 3/3/59 27/27/66 45/44/67 42/41/60
s 9
f 32/32/68 33/33/62 43/42/65 46/45/69
s 10
f 18/18/70 25/25/71 49/47/72 48/46/73
s 7
f 26/26/74 5/5/75 47/49/76 50/48/77
s 6
f 17/17/51 2/2/58 41/40/61 38/38/52
s 9
f 34/34/63 35/35/78 39/50/79 44/43/64
s 11
f 23/23/80 29/29/81 51/52/82 52/51/83
s 12
f 30/30/84 11/11/85 54/54/86 53/53/87
s 11
f 24/24/88 23/23/80 52/51/83 55/55/89
s 12
f 11/11/85 10/10/90 56/56/91 54/54/86
s 11
f 25/25/92 24/24/88 55/55/89 49/47/93
s 12
f 10/10/90 19/19/94 57/57/95 56/56/91
f 19/19/94 9/9/96 58/58/97 57/57/95
s 7
f 9/9/98 26/26/74 50/48/77 58/58/99
s 6
f 27/27/66 4/4/100 59/59/101 45/44/67
s 13
f 4/4/102 31/31/103 60/60/104 59/59/105
s 14
f 29/29/106 28/28/107 61/61/108 51/52/109
s 13
f 8/8/110 22/22/111 63/63/112 62/62/113
f 22/22/111 12/12/114 64/64/115 63/63/112
s 12
f 12/12/116 30/30/84 53/53/87 64/64/117
s 13
f 31/31/103 8/8/110 62/62/113 60/60/104
s 14
f 28/28/107 32/32/118 46/45/119 61/61/108
s 10
f 35/35/120 18/18/70 48/46/73 39/50/121
s 7
f 5/5/75 36/36/54 40/39/57 47/49/76
