# This file uses centimeters as units for non-parametric coordinates.

mtllib sol_avec_mur_1.mtl
g default
v -15.492286 -0.000000 11.371874
v -8.880436 -0.000000 11.414100
v -2.754921 -0.000000 11.471316
v 4.944033 -0.000000 8.839371
v 11.641707 -0.000000 6.550734
v 17.925711 -0.000000 4.290704
v -15.474337 -0.000000 4.690510
v -8.840047 -0.000000 4.690510
v -4.159491 -0.000000 4.786991
v 4.886817 -0.000000 1.337807
v 11.641707 -0.000000 1.337807
v 18.139125 -0.000000 1.309198
v -15.351690 0.000000 -3.646257
v -8.840047 0.000000 -3.646257
v -2.144005 0.000000 -2.798279
v 4.750046 0.000000 -4.246455
v 11.242988 0.000000 -5.673083
v 18.924703 0.000000 -7.394821
v -15.323539 0.000000 -8.630320
v -8.840047 0.000000 -8.630320
v -3.469031 0.000000 -8.630320
v -15.309525 0.000000 -11.636217
v -8.622965 0.000000 -13.235584
v -4.729783 0.000000 -14.091287
v -14.834213 0.000000 -11.749908
v -14.862663 0.000000 -8.630320
v -14.888813 0.000000 -3.646257
v -15.002738 -0.000000 4.690510
v -15.022288 -0.000000 11.374876
v -15.311576 0.000000 -11.196230
v -14.911808 0.000000 -11.293280
v -8.654740 0.000000 -12.818496
v -4.618670 0.000000 -13.659090
v -3.241136 -0.000000 11.466774
v -4.531010 -0.000000 4.779333
v -2.675504 0.000000 -2.865587
v -3.785210 0.000000 -8.630320
v -4.944863 0.000000 -13.601112
v -5.038805 0.000000 -14.023366
v 18.874532 0.000000 -6.998430
v 11.268450 0.000000 -5.331666
v 4.758780 0.000000 -3.889839
v -2.272714 0.000000 -2.313876
v -2.793998 0.000000 -2.377376
v -8.840047 0.000000 -3.113863
v -14.896087 0.000000 -3.113863
v -15.359521 0.000000 -3.113863
v 18.434171 0.000000 -7.284876
v 18.388832 0.000000 -6.895389
v 17.724221 -0.000000 1.311025
v 17.524433 -0.000000 4.435022
v -15.488538 -0.000000 10.967529
v -15.018204 -0.000000 10.969904
v -8.871999 -0.000000 10.964220
v -3.143422 -0.000000 11.024445
v -2.681167 -0.000000 11.029636
v 4.932081 -0.000000 8.441730
v 11.641707 -0.000000 6.099640
v 17.566169 -0.000000 4.021641
v 17.970292 -0.000000 3.907087
v 17.566169 3.000000 4.021641
v 17.970292 3.000000 3.907087
v 18.139125 3.000000 1.309198
v 17.724221 3.000000 1.311025
v 18.874532 3.000000 -6.998430
v 18.388832 3.000000 -6.895389
v -14.911808 3.000000 -11.293280
v -8.654740 3.000000 -12.818496
v -8.622965 3.000000 -13.235584
v -14.834213 3.000000 -11.749908
v -4.944863 3.000000 -13.601112
v -5.038805 3.000000 -14.023366
v -15.311576 3.000000 -11.196230
v -15.309525 3.000000 -11.636217
v -15.351690 3.000000 -3.646257
v -14.888813 3.000000 -3.646257
v -14.862663 3.000000 -8.630320
v -15.323539 3.000000 -8.630320
v -15.474337 3.000000 4.690510
v -15.002738 3.000000 4.690510
v -14.896087 3.000000 -3.113863
v -15.359521 3.000000 -3.113863
v -15.488538 3.000000 10.967529
v -15.018204 3.000000 10.969904
v -2.675504 3.000000 -2.865587
v -3.785210 3.000000 -8.630320
v -2.144005 3.000000 -2.798279
v -3.469031 3.000000 -8.630320
v -4.618670 3.000000 -13.659090
v -4.729783 3.000000 -14.091287
v 18.924703 3.000000 -7.394821
v 18.434171 3.000000 -7.284876
v 11.268450 3.000000 -5.331666
v 4.758780 3.000000 -3.889839
v 11.242988 3.000000 -5.673083
v 4.750046 3.000000 -4.246455
v -2.272714 3.000000 -2.313876
v -2.793998 3.000000 -2.377376
v -15.492286 3.000000 11.371874
v -15.022288 3.000000 11.374876
v -8.880436 3.000000 11.414100
v -8.871999 3.000000 10.964220
v -3.241136 3.000000 11.466774
v -3.143422 3.000000 11.024445
v -2.754921 3.000000 11.471316
v -2.681167 3.000000 11.029636
v 4.944033 3.000000 8.839371
v 4.932081 3.000000 8.441730
v 11.641707 3.000000 6.550734
v 11.641707 3.000000 6.099640
v 17.524433 3.000000 4.435022
v 17.925711 3.000000 4.290704
vt 0.000000 0.200000
vt 0.200000 0.200000
vt 0.400000 0.200000
vt 0.600000 0.200000
vt 0.800000 0.200000
vt 1.000000 0.200000
vt 0.000000 0.400000
vt 0.200000 0.400000
vt 0.400000 0.400000
vt 0.600000 0.400000
vt 0.800000 0.400000
vt 1.000000 0.400000
vt 0.000000 0.600000
vt 0.200000 0.600000
vt 0.400000 0.600000
vt 0.600000 0.600000
vt 0.800000 0.600000
vt 1.000000 0.600000
vt 0.000000 0.800000
vt 0.200000 0.800000
vt 0.400000 0.800000
vt 0.000000 1.000000
vt 0.200000 1.000000
vt 0.400000 1.000000
vt 0.014217 1.000000
vt 0.014217 0.800000
vt 0.014217 0.600000
vt 0.014217 0.400000
vt 0.014217 0.200000
vt 0.000000 0.970725
vt 0.014217 0.970725
vt 0.200000 0.970725
vt 0.400000 0.970725
vt 0.384125 0.200000
vt 0.384125 0.400000
vt 0.384125 0.600000
vt 0.384125 0.800000
vt 0.384125 0.970725
vt 0.384125 1.000000
vt 1.000000 0.587228
vt 0.800000 0.587228
vt 0.600000 0.587228
vt 0.400000 0.587228
vt 0.384125 0.587228
vt 0.200000 0.587228
vt 0.014217 0.587228
vt 0.000000 0.587228
vt 0.987229 0.600000
vt 0.987229 0.587228
vt 0.987229 0.400000
vt 0.987229 0.200000
vt 0.000000 0.241778
vt 0.014217 0.241778
vt 0.200000 0.241778
vt 0.384125 0.241778
vt 0.400000 0.241778
vt 0.600000 0.241778
vt 0.800000 0.241778
vt 0.987229 0.241778
vt 1.000000 0.241778
vt 1.000000 0.241778
vt 1.000000 0.400000
vt 0.987229 0.400000
vt 0.987229 0.241778
vt 1.000000 0.587228
vt 0.987229 0.587228
vt 0.014217 0.970725
vt 0.200000 0.970725
vt 0.200000 1.000000
vt 0.014217 1.000000
vt 0.384125 0.970725
vt 0.384125 1.000000
vt 0.000000 1.000000
vt 0.000000 0.970725
vt 0.014217 0.600000
vt 0.014217 0.800000
vt 0.000000 0.800000
vt 0.000000 0.600000
vt 0.014217 0.400000
vt 0.014217 0.587228
vt 0.000000 0.587228
vt 0.000000 0.400000
vt 0.014217 0.241778
vt 0.000000 0.241778
vt 0.384125 0.800000
vt 0.384125 0.600000
vt 0.400000 0.600000
vt 0.400000 0.800000
vt 0.400000 0.970725
vt 0.400000 1.000000
vt 1.000000 0.600000
vt 0.987229 0.600000
vt 0.600000 0.587228
vt 0.800000 0.587228
vt 0.800000 0.600000
vt 0.600000 0.600000
vt 0.400000 0.587228
vt 0.384125 0.587228
vt 0.000000 0.200000
vt 0.014217 0.200000
vt 0.200000 0.200000
vt 0.200000 0.241778
vt 0.384125 0.200000
vt 0.384125 0.241778
vt 0.400000 0.200000
vt 0.400000 0.241778
vt 0.600000 0.200000
vt 0.600000 0.241778
vt 0.800000 0.200000
vt 0.800000 0.241778
vt 0.987229 0.200000
vt 1.000000 0.200000
vn 0.000000 1.000000 0.000000
vn -0.000000 1.000000 0.000000
vn -0.000000 1.000000 0.000000
vn 0.000000 1.000000 0.000000
vn -0.000000 1.000000 0.000000
vn -0.000000 1.000000 0.000000
vn 0.000000 1.000000 0.000000
vn 0.000000 1.000000 0.000000
vn 0.000000 1.000000 0.000000
vn 0.000000 1.000000 0.000000
vn 0.000000 1.000000 0.000000
vn 0.000000 1.000000 0.000000
vn 0.000000 1.000000 -0.000000
vn 0.000000 1.000000 -0.000000
vn 0.000000 1.000000 -0.000000
vn 0.000000 1.000000 -0.000000
vn -0.000000 1.000000 0.000000
vn 0.000000 1.000000 0.000000
vn -0.000000 1.000000 0.000000
vn 0.000000 1.000000 0.000000
vn 0.000000 1.000000 0.000000
vn 0.000000 1.000000 0.000000
vn 0.000000 1.000000 -0.000000
vn 0.000000 1.000000 0.000000
vn 0.000000 1.000000 0.000000
vn -0.000000 1.000000 0.000000
vn 0.000000 1.000000 0.000000
vn 0.000000 1.000000 0.000000
vn -0.000000 1.000000 0.000000
vn -0.000000 1.000000 0.000000
vn 0.000000 1.000000 0.000000
vn 0.000000 1.000000 0.000000
vn 0.000000 1.000000 0.000000
vn 0.000000 1.000000 0.000000
vn 0.000000 1.000000 0.000000
vn 0.000000 1.000000 0.000000
vn 0.000000 1.000000 -0.000000
vn 0.000000 1.000000 0.000000
vn 0.000000 1.000000 0.000000
vn 0.000000 1.000000 0.000000
vn 0.000000 1.000000 0.000000
vn 0.000000 1.000000 0.000000
vn 0.000000 1.000000 -0.000000
vn 0.000000 1.000000 -0.000000
vn 0.000000 1.000000 -0.000000
vn 0.000000 1.000000 -0.000000
vn 0.000000 1.000000 0.000000
vn 0.000000 1.000000 -0.000000
vn 0.000000 1.000000 0.000000
vn 0.000000 1.000000 0.000000
vn 0.000000 1.000000 0.000000
vn 0.000000 1.000000 -0.000000
vn 0.000000 1.000000 -0.000000
vn 0.000000 1.000000 -0.000000
vn 0.000000 1.000000 -0.000000
vn 0.000000 1.000000 0.000000
vn 0.000000 1.000000 0.000000
vn 0.000000 1.000000 0.000000
vn 0.000000 1.000000 0.000000
vn 0.000000 1.000000 -0.000000
vn 0.000000 1.000000 0.000000
vn 0.000000 1.000000 0.000000
vn 0.000000 1.000000 -0.000000
vn 0.000000 1.000000 -0.000000
vn 0.000000 1.000000 0.000000
vn 0.000000 1.000000 0.000000
vn 0.000000 1.000000 0.000000
vn 0.000000 1.000000 0.000000
vn 0.000000 1.000000 -0.000000
vn 0.000000 1.000000 -0.000000
vn 0.000000 1.000000 -0.000000
vn 0.000000 1.000000 -0.000000
vn 0.000000 1.000000 -0.000000
vn 0.000000 1.000000 -0.000000
vn 0.000000 1.000000 -0.000000
vn 0.000000 1.000000 -0.000000
vn 0.000000 1.000000 -0.000000
vn 0.000000 1.000000 0.000000
vn 0.000000 1.000000 0.000000
vn 0.000000 1.000000 0.000000
vn 0.000000 1.000000 -0.000000
vn 0.000000 1.000000 -0.000000
vn 0.997448 0.000000 0.071397
vn 0.996580 0.000000 0.082632
vn 0.996580 0.000000 0.082632
vn 0.997448 0.000000 0.071397
vn -0.997173 0.000000 -0.075143
vn -0.998304 0.000000 -0.058210
vn -0.998304 0.000000 -0.058210
vn -0.997173 0.000000 -0.075143
vn 0.995952 0.000000 0.089889
vn 0.995952 0.000000 0.089889
vn -0.996737 0.000000 -0.080723
vn -0.996737 0.000000 -0.080723
vn 0.236825 0.000000 0.971552
vn 0.225580 0.000000 0.974225
vn 0.225580 0.000000 0.974225
vn 0.236825 0.000000 0.971552
vn -0.226085 0.000000 -0.974108
vn -0.232629 0.000000 -0.972566
vn -0.232629 0.000000 -0.972566
vn -0.226085 0.000000 -0.974108
vn 0.206412 0.000000 0.978465
vn 0.206412 0.000000 0.978465
vn -0.214671 0.000000 -0.976686
vn -0.214671 0.000000 -0.976686
vn -0.232630 0.000000 -0.972565
vn -0.232630 0.000000 -0.972565
vn -0.999989 0.000000 -0.004662
vn -0.999989 0.000000 -0.004662
vn -0.999989 0.000000 -0.004662
vn -0.999989 0.000000 -0.004662
vn 0.999982 0.000000 0.006059
vn 0.999995 0.000000 -0.003007
vn 0.999995 0.000000 -0.003007
vn 0.999982 0.000000 0.006059
vn -0.999986 0.000000 -0.005313
vn -0.999979 0.000000 -0.006523
vn -0.999979 0.000000 -0.006523
vn -0.999986 0.000000 -0.005313
vn 0.999962 0.000000 0.008670
vn 0.999907 0.000000 0.013664
vn 0.999907 0.000000 0.013664
vn 0.999962 0.000000 0.008670
vn -0.999892 0.000000 -0.014710
vn -0.999958 0.000000 -0.009162
vn -0.999958 0.000000 -0.009162
vn -0.999892 0.000000 -0.014710
vn 0.999997 0.000000 0.002463
vn 0.999997 0.000000 0.002463
vn -0.999996 0.000000 -0.002686
vn -0.999996 0.000000 -0.002686
vn 0.999830 0.000000 -0.018452
vn 0.999830 0.000000 -0.018452
vn -0.978379 0.000000 0.206817
vn -0.987668 0.000000 0.156564
vn -0.987668 0.000000 0.156564
vn -0.978379 0.000000 0.206817
vn 0.975149 0.000000 -0.221552
vn 0.975011 0.000000 -0.222159
vn 0.975011 0.000000 -0.222159
vn 0.975149 0.000000 -0.221552
vn -0.973850 0.000000 0.227193
vn -0.973850 0.000000 0.227193
vn 0.974370 0.000000 -0.224949
vn 0.974370 0.000000 -0.224949
vn 0.968506 0.000000 -0.248991
vn 0.968506 0.000000 -0.248991
vn -0.214671 0.000000 -0.976686
vn -0.214671 0.000000 -0.976686
vn 0.992085 0.000000 0.125567
vn 0.992085 0.000000 0.125567
vn -0.218707 0.000000 -0.975791
vn -0.218708 0.000000 -0.975790
vn -0.218708 0.000000 -0.975790
vn -0.218707 0.000000 -0.975791
vn 0.217524 0.000000 0.976055
vn 0.215336 0.000000 0.976540
vn 0.215336 0.000000 0.976540
vn 0.217524 0.000000 0.976055
vn -0.216761 0.000000 -0.976225
vn -0.209959 0.000000 -0.977710
vn -0.209959 0.000000 -0.977710
vn -0.216761 0.000000 -0.976225
vn 0.196354 0.000000 0.980533
vn 0.196354 0.000000 0.980533
vn -0.205575 0.000000 -0.978641
vn -0.205575 0.000000 -0.978641
vn -0.971786 0.000000 -0.235863
vn -0.971786 0.000000 -0.235863
vn -0.120919 0.000000 0.992662
vn -0.120919 0.000000 0.992662
vn 0.214501 0.000000 0.976724
vn 0.214501 0.000000 0.976724
vn -0.006386 0.000000 0.999980
vn -0.006386 0.000000 0.999980
vn -0.006386 0.000000 0.999980
vn -0.006386 0.000000 0.999980
vn -0.999957 0.000000 -0.009270
vn -0.999957 0.000000 -0.009270
vn -0.007800 0.000000 0.999970
vn -0.007800 0.000000 0.999970
vn 0.004593 0.000000 -0.999989
vn -0.000925 0.000000 -1.000000
vn -0.000925 0.000000 -1.000000
vn 0.004593 0.000000 -0.999989
vn -0.009340 0.000000 0.999956
vn -0.009340 0.000000 0.999956
vn 0.010566 0.000000 -0.999944
vn 0.010566 0.000000 -0.999944
vn 0.305636 0.000000 0.952149
vn 0.305636 0.000000 0.952149
vn -0.304621 0.000000 -0.952474
vn -0.304621 0.000000 -0.952474
vn 0.323418 0.000000 0.946256
vn 0.323418 0.000000 0.946256
vn -0.325464 0.000000 -0.945554
vn -0.325464 0.000000 -0.945554
vn 0.330431 0.000000 0.943830
vn 0.330431 0.000000 0.943830
vn -0.330228 0.000000 -0.943901
vn -0.330228 0.000000 -0.943901
vn 0.338426 0.000000 0.940993
vn 0.338426 0.000000 0.940993
vn -0.330980 0.000000 -0.943638
vn -0.330980 0.000000 -0.943638
vn 0.338424 0.000000 0.940994
vn 0.338424 0.000000 0.940994
vn 0.993315 0.000000 0.115434
vn 0.993315 0.000000 0.115434
s 1
g pPlane1
usemtl initialShadingGroup
f 53/53/1 54/54/2 8/8/3 28/28/4
f 54/54/2 55/55/5 35/35/6 8/8/3
f 56/56/7 57/57/8 10/10/9 9/9/10
f 57/57/8 58/58/11 11/11/12 10/10/9
s 3
f 61/64/13 62/61/14 63/62/15 64/63/16
s 1
f 28/28/4 8/8/3 45/45/17 46/46/18
f 8/8/3 35/35/6 44/44/19 45/45/17
f 9/9/10 10/10/9 42/42/20 43/43/21
f 10/10/9 11/11/12 41/41/22 42/42/20
s 3
f 64/63/16 63/62/15 65/65/23 66/66/24
s 1
f 27/27/25 14/14/26 20/20/27 26/26/28
f 14/14/26 36/36/29 37/37/30 20/20/27
s 3
f 67/67/31 68/68/32 69/69/33 70/70/34
f 68/68/32 71/71/35 72/72/36 69/69/33
f 73/74/37 67/67/31 70/70/34 74/73/38
f 75/78/39 76/75/40 77/76/41 78/77/42
f 79/82/43 80/79/44 81/80/45 82/81/46
f 83/84/47 84/83/48 80/79/44 79/82/43
f 78/77/42 77/76/41 67/67/31 73/74/37
s 1
f 26/26/28 20/20/27 32/32/49 31/31/50
f 20/20/27 37/37/30 38/38/51 32/32/49
f 55/55/5 56/56/7 9/9/10 35/35/6
f 44/44/19 35/35/6 9/9/10 43/43/21
s 3
f 86/85/52 85/86/53 87/87/54 88/88/55
f 71/71/35 86/85/52 88/88/55 89/89/56
f 72/72/36 71/71/35 89/89/56 90/90/57
f 66/66/24 65/65/23 91/91/58 92/92/59
f 94/93/60 93/94/61 95/95/62 96/96/63
f 97/97/64 94/93/60 96/96/63 87/87/54
f 85/86/53 98/98/65 97/97/64 87/87/54
s 1
f 45/45/17 44/44/19 36/36/29 14/14/26
f 46/46/18 45/45/17 14/14/26 27/27/25
s 3
f 82/81/46 81/80/45 76/75/40 75/78/39
f 93/94/61 66/66/24 92/92/59 95/95/62
s 1
f 11/11/12 50/50/66 49/49/67 41/41/22
f 58/58/11 59/59/68 50/50/66 11/11/12
s 3
f 99/99/69 100/100/70 84/83/48 83/84/47
f 100/100/70 101/101/71 102/102/72 84/83/48
f 101/101/71 103/103/73 104/104/74 102/102/72
f 103/103/73 105/105/75 106/106/76 104/104/74
f 105/105/75 107/107/77 108/108/78 106/106/76
f 107/107/77 109/109/79 110/110/80 108/108/78
f 109/109/79 111/111/81 61/64/13 110/110/80
f 111/111/81 112/112/82 62/61/14 61/64/13
s 8
f 60/60/83 12/12/84 63/62/85 62/61/86
s 9
f 50/50/87 59/59/88 61/64/89 64/63/90
s 8
f 12/12/84 40/40/91 65/65/92 63/62/85
s 9
f 49/49/93 50/50/87 64/63/90 66/66/94
s 10
f 31/31/95 32/32/96 68/68/97 67/67/98
s 11
f 23/23/99 25/25/100 70/70/101 69/69/102
s 10
f 32/32/96 38/38/103 71/71/104 68/68/97
s 11
f 39/39/105 23/23/99 69/69/102 72/72/106
f 25/25/100 22/22/107 74/73/108 70/70/101
s 12
f 22/22/109 30/30/110 73/74/111 74/73/112
s 13
f 27/27/113 26/26/114 77/76/115 76/75/116
s 12
f 19/19/117 13/13/118 75/78/119 78/77/120
s 13
f 28/28/121 46/46/122 81/80/123 80/79/124
s 12
f 47/47/125 7/7/126 79/82/127 82/81/128
s 13
f 53/53/129 28/28/121 80/79/124 84/83/130
s 12
f 7/7/126 52/52/131 83/84/132 79/82/127
s 13
f 26/26/114 31/31/133 67/67/134 77/76/115
s 12
f 30/30/110 19/19/117 78/77/120 73/74/111
s 16
f 37/37/135 36/36/136 85/86/137 86/85/138
s 17
f 15/15/139 21/21/140 88/88/141 87/87/142
s 16
f 38/38/143 37/37/135 86/85/138 71/71/144
s 17
f 21/21/140 33/33/145 89/89/146 88/88/141
f 33/33/145 24/24/147 90/90/148 89/89/146
s 11
f 24/24/149 39/39/105 72/72/106 90/90/150
s 8
f 40/40/91 18/18/151 91/91/152 65/65/92
s 18
f 18/18/153 48/48/154 92/92/155 91/91/156
s 19
f 42/42/157 41/41/158 93/94/159 94/93/160
s 18
f 17/17/161 16/16/162 96/96/163 95/95/164
s 19
f 43/43/165 42/42/157 94/93/160 97/97/166
s 18
f 16/16/162 15/15/167 87/87/168 96/96/163
s 16
f 36/36/136 44/44/169 98/98/170 85/86/137
s 19
f 44/44/171 43/43/165 97/97/166 98/98/172
s 13
f 46/46/122 27/27/113 76/75/116 81/80/123
s 12
f 13/13/118 47/47/125 82/81/128 75/78/119
s 19
f 41/41/158 49/49/173 66/66/174 93/94/159
s 18
f 48/48/154 17/17/161 95/95/164 92/92/155
s 21
f 1/1/175 29/29/176 100/100/177 99/99/178
s 12
f 52/52/131 1/1/179 99/99/180 83/84/132
s 21
f 29/29/176 2/2/181 101/101/182 100/100/177
s 22
f 54/54/183 53/53/184 84/83/185 102/102/186
s 21
f 2/2/181 34/34/187 103/103/188 101/101/182
s 22
f 55/55/189 54/54/183 102/102/186 104/104/190
s 21
f 34/34/187 3/3/191 105/105/192 103/103/188
s 22
f 56/56/193 55/55/189 104/104/190 106/106/194
s 21
f 3/3/191 4/4/195 107/107/196 105/105/192
s 22
f 57/57/197 56/56/193 106/106/194 108/108/198
s 21
f 4/4/195 5/5/199 109/109/200 107/107/196
s 22
f 58/58/201 57/57/197 108/108/198 110/110/202
s 21
f 5/5/199 51/51/203 111/111/204 109/109/200
s 22
f 59/59/205 58/58/201 110/110/202 61/64/206
s 21
f 51/51/203 6/6/207 112/112/208 111/111/204
s 8
f 6/6/209 60/60/83 62/61/86 112/112/210
