# This file uses centimeters as units for non-parametric coordinates.

mtllib plan_sol_etage_2.mtl
g default
v -20.080237 -0.000000 7.895434
v -13.741845 -0.000000 9.289583
v -7.591471 -0.000000 10.714857
v 14.026556 -0.000000 8.152759
v -18.698996 -0.000000 1.894881
v -4.258207 -0.000000 0.929675
v 3.943823 -0.000000 0.929675
v 16.472192 -0.000000 0.522069
v -17.617298 0.000000 -3.123823
v -4.037615 0.000000 -3.063900
v 3.937947 0.000000 -3.070398
v 17.520320 0.000000 -3.032563
v -16.372282 0.000000 -8.518125
v -4.037614 0.000000 -8.374158
v -14.974847 0.000000 -14.561000
v -4.023112 0.000000 -14.575235
vt 0.200000 0.200000
vt 0.400000 0.200000
vt 0.600000 0.200000
vt 0.800000 0.200000
vt 0.200000 0.400000
vt 0.400000 0.400000
vt 0.600000 0.400000
vt 0.800000 0.400000
vt 0.200000 0.600000
vt 0.400000 0.600000
vt 0.600000 0.600000
vt 0.800000 0.600000
vt 0.200000 0.800000
vt 0.400000 0.800000
vt 0.200000 1.000000
vt 0.400000 1.000000
vn -0.000000 1.000000 0.000000
vn -0.000000 1.000000 0.000000
vn -0.000000 1.000000 0.000000
vn 0.000000 1.000000 0.000000
vn -0.000000 1.000000 0.000000
vn 0.000000 1.000000 0.000000
vn 0.000000 1.000000 0.000000
vn 0.000000 1.000000 0.000000
vn 0.000000 1.000000 0.000000
vn 0.000000 1.000000 0.000000
vn 0.000000 1.000000 0.000000
vn 0.000000 1.000000 0.000000
vn -0.000000 1.000000 0.000000
vn -0.000000 1.000000 0.000000
vn -0.000000 1.000000 0.000000
vn -0.000000 1.000000 0.000000
s 1
g pPlane1
usemtl initialShadingGroup
f 1/1/1 2/2/2 6/6/3 5/5/4
f 2/2/2 3/3/5 7/7/6 6/6/3
f 3/3/5 4/4/7 8/8/8 7/7/6
f 5/5/4 6/6/3 10/10/9 9/9/10
f 6/6/3 7/7/6 11/11/11 10/10/9
f 7/7/6 8/8/8 12/12/12 11/11/11
f 9/9/10 10/10/9 14/14/13 13/13/14
f 13/13/14 14/14/13 16/16/15 15/15/16
