# This file uses centimeters as units for non-parametric coordinates.

mtllib plan_sol_etage_3.mtl
g default
v -19.508353 -0.000000 8.313259
v -6.806075 -0.000000 11.190647
v 0.916111 -0.000000 10.231517
v 7.531608 -0.000000 9.456835
v 14.774226 -0.000000 8.608375
v -18.918120 -0.000000 5.880683
v -6.769186 -0.000000 6.028242
v 0.879219 -0.000000 6.028242
v 7.531606 -0.000000 6.028242
v 15.512017 -0.000000 6.028242
v -18.032770 -0.000000 2.009414
v -6.769186 -0.000000 2.009414
v 0.879219 -0.000000 2.009414
v 7.531606 -0.000000 2.009414
v 16.729375 -0.000000 2.009414
v -17.036750 0.000000 -2.747207
v -11.085267 0.000000 -2.673427
v -3.695089 0.000000 -2.673427
v 3.695090 0.000000 -2.673427
v 18.241853 0.000000 -2.636538
vt 0.000000 0.000000
vt 0.200000 0.000000
vt 0.400000 0.000000
vt 0.600000 0.000000
vt 0.800000 0.000000
vt 0.000000 0.200000
vt 0.200000 0.200000
vt 0.400000 0.200000
vt 0.600000 0.200000
vt 0.800000 0.200000
vt 0.000000 0.400000
vt 0.200000 0.400000
vt 0.400000 0.400000
vt 0.600000 0.400000
vt 0.800000 0.400000
vt 0.000000 0.600000
vt 0.200000 0.600000
vt 0.400000 0.600000
vt 0.600000 0.600000
vt 0.800000 0.600000
vn -0.000000 1.000000 0.000000
vn -0.000000 1.000000 0.000000
vn -0.000000 1.000000 0.000000
vn -0.000000 1.000000 0.000000
vn 0.000000 1.000000 0.000000
vn 0.000000 1.000000 0.000000
vn 0.000000 1.000000 0.000000
vn 0.000000 1.000000 0.000000
vn 0.000000 1.000000 0.000000
vn 0.000000 1.000000 0.000000
vn -0.000000 1.000000 0.000000
vn -0.000000 1.000000 0.000000
vn 0.000000 1.000000 0.000000
vn -0.000000 1.000000 0.000000
vn -0.000000 1.000000 0.000000
vn -0.000000 1.000000 0.000000
vn -0.000000 1.000000 0.000000
vn 0.000000 1.000000 0.000000
vn -0.000000 1.000000 0.000000
vn -0.000000 1.000000 0.000000
s 1
g pPlane1
usemtl initialShadingGroup
f 1/1/1 2/2/2 7/7/3 6/6/4
f 2/2/2 3/3/5 8/8/6 7/7/3
f 3/3/5 4/4/7 9/9/8 8/8/6
f 4/4/7 5/5/9 10/10/10 9/9/8
f 6/6/4 7/7/3 12/12/11 11/11/12
f 7/7/3 8/8/6 13/13/13 12/12/11
f 8/8/6 9/9/8 14/14/14 13/13/13
f 9/9/8 10/10/10 15/15/15 14/14/14
f 11/11/12 12/12/11 17/17/16 16/16/17
f 12/12/11 13/13/13 18/18/18 17/17/16
f 13/13/13 14/14/14 19/19/19 18/18/18
f 14/14/14 15/15/15 20/20/20 19/19/19
