# This file uses centimeters as units for non-parametric coordinates.

mtllib sol_avec_mur_rdc.mtl
g default
v -17.054822 -0.000000 11.580991
v -10.611709 -0.000000 11.580991
v -4.148208 -0.000000 11.580991
v 2.983533 -0.000000 9.165044
v 9.601243 -0.000000 6.903306
v 16.280880 -0.000000 4.610397
v -17.045314 -0.000000 6.948595
v -10.609080 -0.000000 4.753793
v -5.390019 -0.000000 4.948886
v 2.983533 -0.000000 6.948595
v 10.475096 -0.000000 4.789663
v 16.414035 -0.000000 3.093360
v -17.024671 -0.000000 2.316198
v -10.230712 -0.000000 1.184776
v -2.902576 -0.000000 1.584597
v 2.983533 -0.000000 2.007779
v 9.087211 -0.000000 0.568492
v 16.732980 -0.000000 -0.408168
v -16.993656 0.000000 -2.316199
v -10.251886 0.000000 -2.316199
v -3.694172 0.000000 -2.564462
v 2.315292 0.000000 -3.918596
v 9.601243 0.000000 -5.410150
v 17.349819 0.000000 -7.095827
v -17.024671 0.000000 -6.948595
v -10.251886 0.000000 -6.948595
v -4.773637 0.000000 -6.948595
v -16.973111 0.000000 -11.425919
v -10.251886 0.000000 -11.415844
v -5.793108 0.000000 -11.436488
v -16.705618 -0.000000 11.580991
v -16.676956 -0.000000 6.829641
v -16.656450 -0.000000 2.254878
v -16.628263 0.000000 -2.316199
v -16.657598 0.000000 -6.948595
v -16.521785 0.000000 -11.434324
v 16.297062 -0.000000 4.179387
v 9.656263 -0.000000 6.625720
v 2.983533 -0.000000 8.880986
v -4.226397 -0.000000 11.163414
v -10.611543 -0.000000 11.254346
v -16.703814 -0.000000 11.281831
v -17.052925 -0.000000 11.289322
v 16.886201 0.000000 -6.994968
v 16.275513 -0.000000 -0.349732
v 16.034344 -0.000000 3.194854
v 15.841501 -0.000000 4.433561
v 15.822996 -0.000000 4.804578
v -16.996081 0.000000 -1.953877
v -16.630468 0.000000 -1.958674
v -10.250229 0.000000 -2.042371
v -3.632258 0.000000 -2.239945
v 2.367558 0.000000 -3.455066
v 9.561038 0.000000 -5.025106
v 16.838435 0.000000 -6.578431
v 17.301573 0.000000 -6.572754
v -6.086246 0.000000 -11.436488
v -5.133799 0.000000 -6.948595
v -4.125302 0.000000 -2.548140
v -4.067350 0.000000 -2.226956
v -3.384357 -0.000000 1.558311
v -5.733141 -0.000000 4.936060
v -4.646181 -0.000000 11.162606
v -4.573144 -0.000000 11.580991
v -5.689696 0.000000 -11.111099
v -5.989633 0.000000 -11.111099
v -10.251886 0.000000 -11.111099
v -16.539454 0.000000 -11.061883
v -16.969967 0.000000 -10.971757
v -17.054822 3.000000 11.580991
v -16.705618 3.000000 11.580991
v -16.703814 3.000000 11.281831
v -17.052925 3.000000 11.289322
v -4.573144 3.000000 11.580991
v -4.148208 3.000000 11.580991
v -4.226397 3.000000 11.163414
v -4.646181 3.000000 11.162606
v 2.983533 3.000000 9.165044
v 2.983533 3.000000 8.880986
v 9.601243 3.000000 6.903306
v 9.656263 3.000000 6.625720
v 15.822996 3.000000 4.804578
v 16.280880 3.000000 4.610397
v 16.297062 3.000000 4.179387
v 15.841501 3.000000 4.433561
v -17.045314 3.000000 6.948595
v -16.676956 3.000000 6.829641
v -16.656450 3.000000 2.254878
v -17.024671 3.000000 2.316198
v 16.034344 3.000000 3.194854
v 16.414035 3.000000 3.093360
v 16.732980 3.000000 -0.408168
v 16.275513 3.000000 -0.349732
v -16.996081 3.000000 -1.953877
v -16.630468 3.000000 -1.958674
v -16.628263 3.000000 -2.316199
v -16.993656 3.000000 -2.316199
v -4.067350 3.000000 -2.226956
v -3.632258 3.000000 -2.239945
v -3.694172 3.000000 -2.564462
v -4.125302 3.000000 -2.548140
v 2.367558 3.000000 -3.455066
v 2.315292 3.000000 -3.918596
v 9.561038 3.000000 -5.025106
v 9.601243 3.000000 -5.410150
v 16.838435 3.000000 -6.578431
v 17.301573 3.000000 -6.572754
v 17.349819 3.000000 -7.095827
v 16.886201 3.000000 -6.994968
v -16.657598 3.000000 -6.948595
v -17.024671 3.000000 -6.948595
v -4.773637 3.000000 -6.948595
v -5.133799 3.000000 -6.948595
v -16.539454 3.000000 -11.061883
v -16.969967 3.000000 -10.971757
v -5.689696 3.000000 -11.111099
v -5.989633 3.000000 -11.111099
v -10.611709 3.000000 11.580991
v -10.611543 3.000000 11.254346
v -5.793108 3.000000 -11.436488
v -6.086246 3.000000 -11.436488
v -10.251886 3.000000 -11.111099
v -10.251886 3.000000 -11.415844
v -16.521785 3.000000 -11.434324
v -16.973111 3.000000 -11.425919
vt 0.000000 0.000000
vt 0.200000 0.000000
vt 0.400000 0.000000
vt 0.600000 0.000000
vt 0.800000 0.000000
vt 1.000000 0.000000
vt 0.000000 0.200000
vt 0.200000 0.200000
vt 0.400000 0.200000
vt 0.600000 0.200000
vt 0.800000 0.200000
vt 1.000000 0.200000
vt 0.000000 0.400000
vt 0.200000 0.400000
vt 0.400000 0.400000
vt 0.600000 0.400000
vt 0.800000 0.400000
vt 1.000000 0.400000
vt 0.000000 0.600000
vt 0.200000 0.600000
vt 0.400000 0.600000
vt 0.600000 0.600000
vt 0.800000 0.600000
vt 1.000000 0.600000
vt 0.000000 0.800000
vt 0.200000 0.800000
vt 0.400000 0.800000
vt 0.000000 1.000000
vt 0.200000 1.000000
vt 0.400000 1.000000
vt 0.010840 0.000000
vt 0.010840 0.200000
vt 0.010840 0.400000
vt 0.010840 0.600000
vt 0.010840 0.800000
vt 0.010840 1.000000
vt 1.000000 0.012593
vt 0.800000 0.012593
vt 0.600000 0.012593
vt 0.400000 0.012593
vt 0.200000 0.012593
vt 0.010840 0.012593
vt 0.000000 0.012593
vt 0.988033 0.600000
vt 0.988033 0.400000
vt 0.988033 0.200000
vt 0.988033 0.012593
vt 0.988033 0.000000
vt 0.000000 0.584357
vt 0.010840 0.584357
vt 0.200000 0.584357
vt 0.400000 0.584357
vt 0.600000 0.584357
vt 0.800000 0.584357
vt 0.988033 0.584357
vt 1.000000 0.584357
vt 0.386851 1.000000
vt 0.386851 0.800000
vt 0.386851 0.600000
vt 0.386851 0.584357
vt 0.386851 0.400000
vt 0.386851 0.200000
vt 0.386851 0.012593
vt 0.386851 0.000000
vt 0.400000 0.979713
vt 0.386851 0.979713
vt 0.200000 0.979713
vt 0.010840 0.979713
vt 0.000000 0.979713
vt 0.000000 0.000000
vt 0.010840 0.000000
vt 0.000000 0.012593
vt 0.386851 0.000000
vt 0.400000 0.000000
vt 0.400000 0.012593
vt 0.386851 0.012593
vt 0.600000 0.000000
vt 0.600000 0.012593
vt 0.800000 0.000000
vt 0.800000 0.012593
vt 0.988033 0.000000
vt 1.000000 0.000000
vt 1.000000 0.012593
vt 0.010840 0.200000
vt 0.010840 0.400000
vt 0.000000 0.400000
vt 0.000000 0.200000
vt 1.000000 0.200000
vt 1.000000 0.400000
vt 0.988033 0.400000
vt 0.988033 0.200000
vt 0.010840 0.584357
vt 0.010840 0.600000
vt 0.000000 0.600000
vt 0.000000 0.584357
vt 0.386851 0.584357
vt 0.400000 0.584357
vt 0.386851 0.600000
vt 0.600000 0.584357
vt 0.600000 0.600000
vt 0.400000 0.600000
vt 0.800000 0.584357
vt 0.800000 0.600000
vt 1.000000 0.584357
vt 1.000000 0.600000
vt 0.988033 0.600000
vt 0.010840 0.800000
vt 0.000000 0.800000
vt 0.400000 0.800000
vt 0.386851 0.800000
vt 0.010840 0.979713
vt 0.000000 0.979713
vt 0.400000 0.979713
vt 0.386851 0.979713
vt 0.200000 0.000000
vt 0.200000 0.012593
vt 0.010840 0.012593
vt 0.988033 0.012593
vt 0.988033 0.584357
vt 0.400000 1.000000
vt 0.386851 1.000000
vt 0.200000 0.979713
vt 0.200000 1.000000
vt 0.010840 1.000000
vt 0.000000 1.000000
vn 0.000000 1.000000 -0.000000
vn 0.000000 1.000000 -0.000000
vn 0.000000 1.000000 -0.000000
vn 0.000000 1.000000 0.000000
vn 0.000000 1.000000 -0.000000
vn 0.000000 1.000000 -0.000000
vn 0.000000 1.000000 -0.000000
vn 0.000000 1.000000 -0.000000
vn 0.000000 1.000000 -0.000000
vn 0.000000 1.000000 -0.000000
vn 0.000000 1.000000 0.000000
vn 0.000000 1.000000 0.000000
vn 0.000000 1.000000 0.000000
vn 0.000000 1.000000 0.000000
vn 0.000000 1.000000 0.000000
vn 0.000000 1.000000 0.000000
vn 0.000000 1.000000 -0.000000
vn 0.000000 1.000000 -0.000000
vn 0.000000 1.000000 -0.000000
vn 0.000000 1.000000 -0.000000
vn -0.000000 1.000000 0.000000
vn -0.000000 1.000000 0.000000
vn -0.000000 1.000000 0.000000
vn -0.000000 1.000000 0.000000
vn 0.000000 1.000000 0.000000
vn 0.000000 1.000000 0.000000
vn 0.000000 1.000000 0.000000
vn 0.000000 1.000000 0.000000
vn 0.000000 1.000000 0.000000
vn 0.000000 1.000000 0.000000
vn 0.000000 1.000000 0.000000
vn 0.000000 1.000000 0.000000
vn 0.000000 1.000000 0.000000
vn 0.000000 1.000000 0.000000
vn 0.000000 1.000000 -0.000000
vn 0.000000 1.000000 -0.000000
vn 0.000000 1.000000 0.000000
vn 0.000000 1.000000 0.000000
vn 0.000000 1.000000 0.000000
vn 0.000000 1.000000 0.000000
vn 0.000000 1.000000 -0.000000
vn 0.000000 1.000000 -0.000000
vn 0.000000 1.000000 -0.000000
vn 0.000000 1.000000 -0.000000
vn 0.000000 1.000000 -0.000000
vn 0.000000 1.000000 0.000000
vn 0.000000 1.000000 0.000000
vn 0.000000 1.000000 -0.000000
vn 0.000000 1.000000 -0.000000
vn 0.000000 1.000000 -0.000000
vn 0.000000 1.000000 0.000000
vn 0.000000 1.000000 0.000000
vn 0.000000 1.000000 -0.000001
vn 0.000000 1.000000 0.000000
vn 0.000000 1.000000 -0.000000
vn 0.000000 1.000000 0.000000
vn 0.000000 1.000000 -0.000000
vn 0.000000 1.000000 -0.000000
vn 0.000000 1.000000 0.000000
vn 0.000000 1.000000 0.000000
vn 0.000000 1.000000 0.000000
vn 0.000000 1.000000 0.000000
vn 0.000000 1.000000 0.000000
vn 0.000000 1.000000 0.000000
vn 0.000000 1.000000 0.000000
vn 0.000000 1.000000 0.000000
vn 0.000000 1.000000 0.000000
vn 0.000000 1.000000 0.000000
vn 0.000000 1.000000 0.000000
vn 0.000000 1.000000 0.000000
vn 0.000000 1.000000 0.000000
vn 0.000000 1.000000 0.000000
vn 0.000000 1.000000 0.000000
vn -0.000000 1.000000 0.000000
vn 0.000000 1.000000 0.000000
vn 0.000000 1.000000 0.000000
vn 0.000000 1.000000 0.000000
vn 0.000000 1.000000 0.000000
vn 0.000000 1.000000 0.000000
vn 0.000000 1.000000 0.000000
vn -0.000000 1.000000 0.000000
vn 0.000000 1.000000 0.000000
vn 0.000000 1.000000 0.000000
vn 0.000000 1.000000 0.000000
vn 0.000000 1.000000 0.000000
vn 0.000000 1.000000 0.000000
vn 0.000000 1.000000 0.000000
vn 0.000000 1.000000 -0.000000
vn 0.000000 1.000000 0.000001
vn 0.000000 1.000000 -0.000000
vn 0.000000 1.000000 -0.000000
vn 0.000000 1.000000 -0.000001
vn 0.000000 1.000000 0.000000
vn 0.000000 0.000000 1.000000
vn 0.000000 0.000000 1.000000
vn 0.000000 0.000000 1.000000
vn 0.000000 0.000000 1.000000
vn -0.999998 0.000000 -0.002053
vn -0.999979 0.000000 -0.006505
vn -0.999979 0.000000 -0.006505
vn -0.999998 0.000000 -0.002053
vn 0.000000 0.000000 1.000000
vn 0.304525 0.000000 0.952504
vn 0.304525 0.000000 0.952504
vn 0.000000 0.000000 1.000000
vn -0.286507 0.000000 -0.958078
vn -0.014240 0.000000 -0.999899
vn -0.014240 0.000000 -0.999899
vn -0.286507 0.000000 -0.958078
vn 0.322080 0.000000 0.946712
vn 0.322080 0.000000 0.946712
vn -0.310685 0.000000 -0.950513
vn -0.310685 0.000000 -0.950513
vn 0.321575 0.000000 0.946884
vn 0.321575 0.000000 0.946884
vn -0.326887 0.000000 -0.945064
vn -0.326887 0.000000 -0.945064
vn 0.324672 0.000000 0.945827
vn 0.390426 0.000000 0.920634
vn 0.390426 0.000000 0.920634
vn 0.324672 0.000000 0.945827
vn 0.999296 0.000000 0.037518
vn 0.996170 0.000000 0.087437
vn 0.996170 0.000000 0.087437
vn 0.999296 0.000000 0.037518
vn 0.999986 0.000000 0.005247
vn 0.999986 0.000000 0.005290
vn 0.999986 0.000000 0.005290
vn 0.999986 0.000000 0.005247
vn -0.999985 0.000000 -0.005530
vn -0.999995 0.000000 -0.003149
vn -0.999995 0.000000 -0.003149
vn -0.999985 0.000000 -0.005530
vn 0.995516 0.000000 0.094596
vn 0.995811 0.000000 0.091435
vn 0.995811 0.000000 0.091435
vn 0.995516 0.000000 0.094596
vn -0.996633 0.000000 -0.081997
vn -0.995909 0.000000 -0.090364
vn -0.995909 0.000000 -0.090364
vn -0.996633 0.000000 -0.081997
vn 0.999981 0.000000 0.006166
vn 0.999985 0.000000 -0.005437
vn 0.999985 0.000000 -0.005437
vn 0.999981 0.000000 0.006166
vn -0.999984 0.000000 0.005724
vn -0.999978 0.000000 -0.006695
vn -0.999978 0.000000 -0.006695
vn -0.999984 0.000000 0.005724
vn 0.029841 0.000000 0.999555
vn 0.187468 0.000000 0.982271
vn 0.187468 0.000000 0.982271
vn 0.029841 0.000000 0.999555
vn -0.975429 0.000000 0.220314
vn -0.984109 0.000000 0.177567
vn -0.984109 0.000000 0.177567
vn -0.975429 0.000000 0.220314
vn 0.206552 0.000000 0.978436
vn 0.206552 0.000000 0.978436
vn -0.209295 0.000000 -0.977853
vn -0.219822 0.000000 -0.975540
vn -0.219822 0.000000 -0.975540
vn -0.209295 0.000000 -0.977853
vn 0.210980 0.000000 0.977490
vn 0.210980 0.000000 0.977490
vn -0.206577 0.000000 -0.978430
vn -0.206577 0.000000 -0.978430
vn 0.995773 0.000000 0.091846
vn 0.995773 0.000000 0.091847
vn 0.995773 0.000000 0.091847
vn 0.995773 0.000000 0.091846
vn -0.212576 0.000000 -0.977144
vn -0.212575 0.000000 -0.977145
vn -0.212575 0.000000 -0.977145
vn -0.212576 0.000000 -0.977144
vn 0.999948 0.000000 0.010154
vn 0.999948 0.000000 0.010154
vn -0.999996 0.000000 -0.002737
vn -0.999996 0.000000 -0.002737
vn 0.971000 0.000000 -0.239081
vn 0.973808 0.000000 -0.227371
vn 0.973808 0.000000 -0.227371
vn 0.971000 0.000000 -0.239081
vn -0.977110 0.000000 0.212737
vn -0.977110 0.000000 0.212737
vn 0.999588 0.000000 0.028711
vn 0.999588 0.000000 0.028711
vn -0.999934 0.000000 -0.011515
vn -0.999934 0.000000 -0.011515
vn 0.975157 0.000000 -0.221517
vn 0.975157 0.000000 -0.221517
vn -0.979511 0.000000 0.201393
vn -0.979511 0.000000 0.201393
vn 0.000000 0.000000 1.000000
vn 0.000000 0.000000 1.000000
vn -0.009887 0.000000 -0.999951
vn -0.004511 0.000000 -0.999990
vn -0.004511 0.000000 -0.999990
vn -0.009887 0.000000 -0.999951
vn -0.988098 0.000000 -0.153828
vn -0.988098 0.000000 -0.153828
vn 0.999982 0.000000 0.006032
vn 0.999982 0.000000 0.006032
vn 0.208743 0.000000 0.977971
vn 0.208743 0.000000 0.977971
vn -0.334058 0.000000 -0.942553
vn -0.334058 0.000000 -0.942553
vn -0.995941 0.000000 -0.090009
vn -0.995941 0.000000 -0.090009
vn 0.953028 0.000000 -0.302881
vn 0.953028 0.000000 -0.302881
vn 0.000000 0.000000 -1.000000
vn -0.004630 0.000000 -0.999989
vn -0.004630 0.000000 -0.999989
vn 0.000000 0.000000 -1.000000
vn 0.004665 0.000000 0.999989
vn 0.000000 0.000000 1.000000
vn 0.000000 0.000000 1.000000
vn 0.004665 0.000000 0.999989
vn -0.000207 0.000000 -1.000000
vn -0.000207 0.000000 -1.000000
vn 0.007827 0.000000 0.999969
vn 0.007827 0.000000 0.999969
vn 0.001499 0.000000 -0.999999
vn 0.001499 0.000000 -0.999999
vn -0.018618 0.000000 -0.999827
vn -0.018618 0.000000 -0.999827
vn -0.999976 0.000000 0.006922
vn -0.999976 0.000000 0.006922
s 1
g pPlane1
usemtl initialShadingGroup
f 70/70/1 71/71/2 72/117/3 73/72/4
f 74/73/5 75/74/6 76/75/7 77/76/8
f 75/74/6 78/77/9 79/78/10 76/75/7
f 78/77/9 80/79/11 81/80/12 79/78/10
f 82/81/13 83/82/14 84/83/15 85/118/16
f 86/87/17 87/84/18 88/85/19 89/86/20
s 4
f 62/62/21 9/9/22 15/15/23 61/61/24
f 9/9/22 10/10/25 16/16/26 15/15/23
f 10/10/25 11/11/27 17/17/28 16/16/26
s 1
f 90/91/29 91/88/30 92/89/31 93/90/32
f 94/95/33 95/92/34 96/93/35 97/94/36
f 98/96/37 99/97/38 100/101/39 101/98/40
f 99/97/38 102/99/41 103/100/42 100/101/39
f 102/99/41 104/102/43 105/103/44 103/100/42
f 106/119/45 107/104/46 108/105/47 109/106/48
f 97/94/36 96/93/35 110/107/49 111/108/50
f 101/98/40 100/101/39 112/109/51 113/110/52
f 111/108/50 110/107/49 114/111/53 115/112/54
f 113/110/52 112/109/51 116/113/55 117/114/56
f 71/71/2 118/115/57 119/116/58 72/117/3
s 4
f 33/33/59 32/32/60 8/8/61 14/14/62
f 34/34/63 50/50/64 51/51/65 20/20/66
f 35/35/67 34/34/63 20/20/66 26/26/68
f 68/68/69 35/35/67 26/26/68 67/67/70
s 1
f 85/118/16 84/83/15 91/88/30 90/91/29
s 4
f 39/39/71 38/38/72 11/11/27 10/10/25
f 40/40/73 39/39/71 10/10/25 9/9/22
f 63/63/74 40/40/73 9/9/22 62/62/21
f 42/42/75 41/41/76 8/8/61 32/32/60
s 1
f 73/72/4 72/117/3 87/84/18 86/87/17
f 104/102/43 106/119/45 109/106/48 105/103/44
s 4
f 11/11/27 46/46/77 45/45/78 17/17/28
f 38/38/72 47/47/79 46/46/77 11/11/27
s 1
f 80/79/11 82/81/13 85/118/16 81/80/12
f 89/86/20 88/85/19 95/92/34 94/95/33
s 4
f 51/51/65 50/50/64 33/33/59 14/14/62
f 61/61/24 15/15/23 52/52/80 60/60/81
f 15/15/23 16/16/26 53/53/82 52/52/80
f 16/16/26 17/17/28 54/54/83 53/53/82
f 17/17/28 45/45/78 55/55/84 54/54/83
s 1
f 93/90/32 92/89/31 107/104/46 106/119/45
s 4
f 26/26/68 58/58/85 66/66/86 67/67/70
f 20/20/66 59/59/87 58/58/85 26/26/68
f 51/51/65 60/60/81 59/59/87 20/20/66
f 14/14/62 61/61/24 60/60/81 51/51/65
f 8/8/61 62/62/21 61/61/24 14/14/62
f 41/41/76 63/63/74 62/62/21 8/8/61
s 1
f 118/115/57 74/73/5 77/76/8 119/116/58
f 117/114/56 116/113/55 120/120/88 121/121/89
f 122/122/90 117/114/56 121/121/89 123/123/91
f 124/124/92 114/111/53 122/122/90 123/123/91
f 115/112/54 114/111/53 124/124/92 125/125/93
s 7
f 1/1/94 31/31/95 71/71/96 70/70/97
s 8
f 43/43/98 1/1/99 70/70/100 73/72/101
s 7
f 64/64/102 3/3/103 75/74/104 74/73/105
s 10
f 40/40/106 63/63/107 77/76/108 76/75/109
s 7
f 3/3/103 4/4/110 78/77/111 75/74/104
s 10
f 39/39/112 40/40/106 76/75/109 79/78/113
s 7
f 4/4/110 5/5/114 80/79/115 78/77/111
s 10
f 38/38/116 39/39/112 79/78/113 81/80/117
s 7
f 48/48/118 6/6/119 83/82/120 82/81/121
s 11
f 6/6/122 37/37/123 84/83/124 83/82/125
s 12
f 32/32/126 33/33/127 88/85/128 87/84/129
s 8
f 13/13/130 7/7/131 86/87/132 89/86/133
s 11
f 12/12/134 18/18/135 92/89/136 91/88/137
s 14
f 45/45/138 46/46/139 90/91/140 93/90/141
s 12
f 50/50/142 34/34/143 96/93/144 95/92/145
s 8
f 19/19/146 49/49/147 94/95/148 97/94/149
s 16
f 60/60/150 52/52/151 99/97/152 98/96/153
s 17
f 59/59/154 60/60/155 98/96/156 101/98/157
s 16
f 52/52/151 53/53/158 102/99/159 99/97/152
s 18
f 22/22/160 21/21/161 100/101/162 103/100/163
s 16
f 53/53/158 54/54/164 104/102/165 102/99/159
s 18
f 23/23/166 22/22/160 103/100/163 105/103/167
s 11
f 56/56/168 24/24/169 108/105/170 107/104/171
s 18
f 24/24/172 44/44/173 109/106/174 108/105/175
s 12
f 34/34/143 35/35/176 110/107/177 96/93/144
s 8
f 25/25/178 19/19/146 97/94/149 111/108/179
s 19
f 21/21/180 27/27/181 112/109/182 100/101/183
s 17
f 58/58/184 59/59/154 101/98/157 113/110/185
s 12
f 35/35/176 68/68/186 114/111/187 110/107/177
s 8
f 69/69/188 25/25/178 111/108/179 115/112/189
s 19
f 27/27/181 65/65/190 116/113/191 112/109/182
s 17
f 66/66/192 58/58/184 113/110/185 117/114/193
s 7
f 31/31/95 2/2/194 118/115/195 71/71/96
s 10
f 41/41/196 42/42/197 72/117/198 119/116/199
s 11
f 37/37/123 12/12/134 91/88/137 84/83/124
s 14
f 46/46/139 47/47/200 85/118/201 90/91/140
s 12
f 42/42/202 32/32/126 87/84/129 72/117/203
s 8
f 7/7/131 43/43/98 73/72/101 86/87/132
s 16
f 54/54/164 55/55/204 106/119/205 104/102/165
s 18
f 44/44/173 23/23/166 105/103/167 109/106/174
s 7
f 5/5/114 48/48/118 82/81/121 80/79/115
s 10
f 47/47/206 38/38/116 81/80/117 85/118/207
s 12
f 33/33/127 50/50/142 95/92/145 88/85/128
s 8
f 49/49/147 13/13/130 89/86/133 94/95/148
s 11
f 18/18/135 56/56/168 107/104/171 92/89/136
s 14
f 55/55/208 45/45/138 93/90/141 106/119/209
s 7
f 2/2/194 64/64/102 74/73/105 118/115/195
s 10
f 63/63/107 41/41/196 119/116/199 77/76/108
s 19
f 65/65/190 30/30/210 120/120/211 116/113/191
s 20
f 30/30/212 57/57/213 121/121/214 120/120/215
s 21
f 67/67/216 66/66/217 117/114/218 122/122/219
s 20
f 57/57/213 29/29/220 123/123/221 121/121/214
s 21
f 68/68/222 67/67/216 122/122/219 114/111/223
s 20
f 29/29/220 36/36/224 124/124/225 123/123/221
f 36/36/224 28/28/226 125/125/227 124/124/225
s 8
f 28/28/228 69/69/188 115/112/189 125/125/229
